/* XPM */
static char *info32x32_xpm[] = {
/* columns rows colors chars-per-pixel */
"32 32 9 1",
"$ c Black",
"O c #FFFFFF",
"@ c #808080",
"+ c #000080",
"o c #E8EB01",
"X c #FFFF40",
"# c #C0C0C0",
". c #ABAD01",
"  c None",
/* pixels */
"                                ",
"                                ",
"                                ",
"                                ",
"                                ",
"                                ",
"              ....              ",
"             .XXXX.             ",
"           .XXXXXXXo.           ",
"           .OOXXXXXX.           ",
"          .XOXX++XXXo.          ",
"          XOOXX++XXXXo          ",
"          XXXXX++XXXXX          ",
"          XXXXX++XXXXo          ",
"          .XXXX++XXXo.          ",
"          .XXXXXXXXXo.          ",
"           .XXX++XXo.           ",
"            XXX++Xoo            ",
"            ..XXXX..            ",
"             .XXXo.             ",
"             @@@@@@             ",
"             @####@             ",
"             @####@             ",
"              @@@@              ",
"               $$               ",
"                                ",
"                                ",
"                                ",
"                                ",
"                                ",
"                                ",
"                                "
};
